<?xml version="1.0" encoding="utf-8"?>
<!-- Generator: Adobe Illustrator 16.0.0, SVG Export Plug-In . SVG Version: 6.00 Build 0)  -->
<!DOCTYPE svg PUBLIC "-//W3C//DTD SVG 1.1//EN" "http://www.w3.org/Graphics/SVG/1.1/DTD/svg11.dtd">
<svg version="1.1" id="Layer_1" xmlns="http://www.w3.org/2000/svg" xmlns:xlink="http://www.w3.org/1999/xlink" x="0px" y="0px"
	 width="1920px" height="404px" viewBox="0 2816.5 1920 404" enable-background="new 0 2816.5 1920 404" xml:space="preserve">
<g>
	<path fill="#76CFE7" d="M32.04,2882.699h73.78l54.06,150.62l54.06-150.62h72.42l-96.56,239.7h-61.2L32.04,2882.699z"/>
	<path fill="#FFFFFF" d="M358.438,3124.779c-8.84,0-17-1.249-24.48-3.74c-7.48-2.492-13.999-6.12-19.55-10.881
		c-5.557-4.76-9.918-10.65-13.09-17.68c-3.177-7.023-4.76-15.184-4.76-24.48v-0.68c0-9.52,1.753-17.902,5.27-25.16
		c3.511-7.251,8.383-13.26,14.62-18.02c6.232-4.76,13.77-8.383,22.61-10.88c8.84-2.491,18.7-3.74,29.58-3.74
		c8.611,0,16.83,0.739,24.65,2.21c7.82,1.477,14.333,3.119,19.55,4.93v-3.06c0-9.521-3.007-16.883-9.01-22.1
		c-6.009-5.211-15.247-7.82-27.71-7.82c-9.749,0-18.589,0.909-26.52,2.72c-7.937,1.817-15.98,4.308-24.14,7.48l-13.26-45.56
		c10.423-4.303,21.473-7.762,33.15-10.37c11.671-2.603,25.441-3.91,41.31-3.91c16.543,0,30.542,1.929,41.99,5.78
		c11.443,3.857,20.793,9.408,28.05,16.66c7.023,6.8,12.07,15.019,15.13,24.65c3.06,9.637,4.59,20.91,4.59,33.83v105.74h-63.92
		v-19.041c-6.349,7.029-13.887,12.639-22.61,16.83C381.16,3122.68,370.678,3124.779,358.438,3124.779z M381.558,3084.318
		c9.52,0,17.223-2.72,23.12-8.16c5.892-5.439,8.84-12.803,8.84-22.1v-8.5c-3.177-1.359-6.97-2.491-11.39-3.4
		c-4.42-0.902-9.01-1.359-13.77-1.359c-9.52,0-16.83,2.098-21.93,6.29c-5.1,4.196-7.65,9.69-7.65,16.489v0.681
		c0,6.349,2.152,11.278,6.46,14.79C369.541,3082.565,374.981,3084.318,381.558,3084.318z"/>
	<path fill="#FFFFFF" d="M510.758,2872.499h64.94v248.201h-64.94V2872.499z"/>
	<path fill="#FFFFFF" d="M611.394,2936.759h64.94v24.48c3.167-3.852,6.556-7.48,10.174-10.88c3.618-3.4,7.634-6.402,12.043-9.01
		c4.409-2.603,9.382-4.702,14.923-6.29c5.535-1.583,11.698-2.38,18.482-2.38c10.848,0,21.191,2.21,31.03,6.63
		s18.488,10.71,25.946,18.87c7.459,8.16,13.398,18.137,17.808,29.92c4.409,11.789,6.614,25.048,6.614,39.78v0.68
		c0,14.96-2.205,28.391-6.614,40.29c-4.41,11.899-10.291,21.989-17.638,30.261c-7.353,8.276-15.943,14.619-25.776,19.039
		c-9.838,4.42-20.182,6.631-31.03,6.631c-7.012,0-13.287-0.738-18.822-2.211c-5.541-1.477-10.572-3.399-15.093-5.779
		c-4.526-2.381-8.595-5.212-12.213-8.5c-3.618-3.283-6.896-6.631-9.833-10.03v76.84h-64.94V2936.759z M712.204,3070.719
		c10.604,0,19.518-3.852,26.738-11.561c7.22-7.703,10.833-17.791,10.833-30.26v-0.68c0-12.24-3.613-22.211-10.833-29.92
		c-7.22-7.703-16.134-11.56-26.738-11.56c-5.19,0-10.041,1.02-14.556,3.06s-8.463,4.93-11.847,8.67
		c-3.384,3.74-6.035,8.107-7.953,13.09c-1.917,4.988-2.874,10.54-2.874,16.66v0.68c0,6.12,0.957,11.73,2.874,16.83
		c1.918,5.1,4.569,9.52,7.953,13.26c3.384,3.74,7.331,6.631,11.847,8.67C702.163,3069.699,707.013,3070.719,712.204,3070.719z"/>
	<path fill="#FFFFFF" d="M893.932,3124.779c-8.84,0-17-1.249-24.48-3.74c-7.48-2.492-13.999-6.12-19.55-10.881
		c-5.557-4.76-9.918-10.65-13.09-17.68c-3.177-7.023-4.76-15.184-4.76-24.48v-0.68c0-9.52,1.753-17.902,5.27-25.16
		c3.511-7.251,8.383-13.26,14.62-18.02c6.232-4.76,13.77-8.383,22.61-10.88c8.84-2.491,18.7-3.74,29.58-3.74
		c8.611,0,16.83,0.739,24.65,2.21c7.82,1.477,14.333,3.119,19.55,4.93v-3.06c0-9.521-3.007-16.883-9.01-22.1
		c-6.009-5.211-15.247-7.82-27.71-7.82c-9.749,0-18.589,0.909-26.52,2.72c-7.937,1.817-15.98,4.308-24.14,7.48l-13.26-45.56
		c10.423-4.303,21.473-7.762,33.15-10.37c11.671-2.603,25.441-3.91,41.31-3.91c16.543,0,30.542,1.929,41.991,5.78
		c11.443,3.857,20.793,9.408,28.049,16.66c7.023,6.8,12.07,15.019,15.131,24.65c3.061,9.637,4.59,20.91,4.59,33.83v105.74h-63.92
		v-19.041c-6.349,7.029-13.887,12.639-22.61,16.83C916.654,3122.68,906.172,3124.779,893.932,3124.779z M917.052,3084.318
		c9.52,0,17.223-2.72,23.12-8.16c5.892-5.439,8.84-12.803,8.84-22.1v-8.5c-3.177-1.359-6.97-2.491-11.39-3.4
		c-4.42-0.902-9.01-1.359-13.77-1.359c-9.52,0-16.83,2.098-21.93,6.29c-5.1,4.196-7.65,9.69-7.65,16.489v0.681
		c0,6.349,2.152,11.278,6.46,14.79C905.035,3082.565,910.475,3084.318,917.052,3084.318z"/>
	<path fill="#FFFFFF" d="M1044.892,2936.759h64.94v37.06c5.211-12.463,12.352-22.44,21.42-29.92c9.062-7.48,21.303-10.88,36.72-10.2
		v68h-5.439c-17,0-30.037,4.988-39.101,14.959c-9.068,9.978-13.6,25.617-13.6,46.92v57.121h-64.94V2936.759z"/>
	<path fill="#FFFFFF" d="M1243.109,3124.779c-8.84,0-17-1.249-24.48-3.74c-7.479-2.492-13.998-6.12-19.55-10.881
		c-5.557-4.76-9.918-10.65-13.09-17.68c-3.177-7.023-4.76-15.184-4.76-24.48v-0.68c0-9.52,1.753-17.902,5.27-25.16
		c3.512-7.251,8.384-13.26,14.62-18.02c6.231-4.76,13.771-8.383,22.61-10.88c8.84-2.491,18.7-3.74,29.58-3.74
		c8.611,0,16.83,0.739,24.649,2.21c7.82,1.477,14.333,3.119,19.551,4.93v-3.06c0-9.521-3.007-16.883-9.011-22.1
		c-6.008-5.211-15.246-7.82-27.71-7.82c-9.748,0-18.588,0.909-26.52,2.72c-7.938,1.817-15.98,4.308-24.141,7.48l-13.26-45.56
		c10.423-4.303,21.474-7.762,33.15-10.37c11.671-2.603,25.441-3.91,41.31-3.91c16.543,0,30.542,1.929,41.99,5.78
		c11.443,3.857,20.793,9.408,28.05,16.66c7.023,6.8,12.07,15.019,15.13,24.65c3.061,9.637,4.59,20.91,4.59,33.83v105.74h-63.92
		v-19.041c-6.348,7.029-13.887,12.639-22.609,16.83C1265.831,3122.68,1255.35,3124.779,1243.109,3124.779z M1266.229,3084.318
		c9.52,0,17.223-2.72,23.12-8.16c5.892-5.439,8.84-12.803,8.84-22.1v-8.5c-3.177-1.359-6.97-2.491-11.39-3.4
		c-4.421-0.902-9.011-1.359-13.771-1.359c-9.52,0-16.83,2.098-21.93,6.29c-5.101,4.196-7.65,9.69-7.65,16.489v0.681
		c0,6.349,2.151,11.278,6.46,14.79C1254.213,3082.565,1259.652,3084.318,1266.229,3084.318z"/>
	<path fill="#FFFFFF" d="M1395.43,2936.759h64.939v183.94h-64.939V2936.759z M1436.941,2858.219l60.18,19.38l-49.979,43.52h-45.561
		L1436.941,2858.219z"/>
	<path fill="#FFFFFF" d="M1569.165,3124.779c-15.641,0-30.829-2.211-45.561-6.631c-14.736-4.42-28.56-11.273-41.479-20.57
		l24.14-39.1c10.651,7.029,21.473,12.299,32.47,15.811c10.992,3.517,21.25,5.27,30.771,5.27c10.88,0,16.319-3.283,16.319-9.859
		v-0.681c0-3.623-2.496-6.46-7.479-8.5c-4.988-2.04-12.357-4.42-22.101-7.14c-9.068-2.264-17.568-4.93-25.5-7.99
		c-7.937-3.061-14.848-6.8-20.739-11.22c-5.897-4.421-10.54-9.802-13.94-16.15c-3.399-6.343-5.1-14.163-5.1-23.46v-0.68
		c0-9.743,1.87-18.413,5.609-26.01c3.74-7.591,8.894-13.94,15.471-19.04c6.571-5.1,14.333-9.01,23.29-11.73
		c8.951-2.72,18.753-4.08,29.409-4.08c13.601,0,26.972,1.87,40.12,5.61c13.144,3.74,25.044,9.01,35.7,15.81l-22.1,40.8
		c-9.521-5.211-19.157-9.35-28.9-12.41c-9.748-3.06-18.248-4.59-25.5-4.59c-4.988,0-8.729,0.85-11.22,2.55
		c-2.497,1.7-3.74,3.799-3.74,6.29v0.68c0,3.628,2.55,6.519,7.65,8.67c5.1,2.157,12.521,4.707,22.27,7.649
		c9.063,2.498,17.563,5.271,25.5,8.33c7.932,3.061,14.844,6.801,20.74,11.221c5.892,4.42,10.54,9.807,13.94,16.15
		c3.399,6.348,5.1,13.939,5.1,22.779v0.68c0,10.201-1.817,19.1-5.44,26.69c-3.628,7.597-8.729,13.999-15.3,19.21
		c-6.577,5.217-14.508,9.127-23.8,11.73C1590.468,3123.472,1580.268,3124.779,1569.165,3124.779z"/>
	<path fill="#FFFFFF" d="M1764.662,3125.119c-14.736,0-28.278-2.497-40.63-7.48c-12.356-4.982-23.066-11.842-32.13-20.57
		c-9.068-8.723-16.097-18.869-21.08-30.43c-4.988-11.561-7.479-23.912-7.479-37.061v-0.68c0-13.143,2.55-25.553,7.649-37.229
		c5.101-11.672,12.182-21.872,21.25-30.6c9.063-8.723,19.832-15.64,32.3-20.74c12.464-5.1,26.063-7.65,40.801-7.65
		c14.731,0,28.272,2.55,40.63,7.65c12.352,5.1,23.062,11.958,32.13,20.57c9.063,8.617,16.092,18.7,21.08,30.26
		c4.983,11.56,7.479,23.917,7.479,37.06v0.68c0,13.148-2.55,25.559-7.649,37.23c-5.101,11.677-12.188,21.877-21.25,30.6
		c-9.068,8.729-19.837,15.641-32.3,20.74C1792.994,3122.568,1779.394,3125.119,1764.662,3125.119z M1765.343,3070.039
		c5.892,0,11.22-1.068,15.979-3.203c4.76-2.137,8.781-5.059,12.07-8.766c3.283-3.709,5.833-8.039,7.649-12.984
		c1.812-4.945,2.721-10.115,2.721-15.513v-0.675c0-5.62-0.967-10.9-2.891-15.847c-1.928-4.946-4.648-9.276-8.159-12.984
		c-3.518-3.708-7.65-6.683-12.41-8.936c-4.761-2.248-9.978-3.374-15.641-3.374c-5.896,0-11.22,1.068-15.979,3.204
		c-4.76,2.135-8.787,5.062-12.07,8.771c-3.288,3.708-5.838,8.039-7.649,12.984c-1.817,4.945-2.721,10.115-2.721,15.508v0.674
		c0,5.621,0.962,10.906,2.891,15.854c1.923,4.945,4.643,9.27,8.159,12.978c3.512,3.708,7.65,6.688,12.41,8.937
		C1754.463,3068.918,1759.674,3070.039,1765.343,3070.039z"/>
</g>
</svg>
